<?xml version="1.0" encoding="UTF-8" standalone="no"?>
<!DOCTYPE svg PUBLIC "-//W3C//DTD SVG 1.1//EN"
 "http://www.w3.org/Graphics/SVG/1.1/DTD/svg11.dtd">
<!-- Generated by graphviz version 9.0.0 (20230911.1827)
 -->
<!-- Pages: 1 -->
<svg width="342pt" height="207pt"
 viewBox="0.00 0.00 342.42 207.08" xmlns="http://www.w3.org/2000/svg" xmlns:xlink="http://www.w3.org/1999/xlink">
<g id="graph0" class="graph" transform="scale(1 1) rotate(0) translate(4 203.08)">
<polygon fill="white" stroke="none" points="-4,4 -4,-203.08 338.42,-203.08 338.42,4 -4,4"/>
<!-- right -->
<g id="node1" class="node">
<title>right</title>
<polygon fill="lightgray" stroke="black" points="312.96,-199.08 280.46,-199.08 280.46,-179.83 312.96,-179.83 312.96,-199.08"/>
<text text-anchor="middle" x="296.71" y="-186.53" font-family="Times New Roman,serif" font-size="9.00">right</text>
</g>
<!-- 39 -->
<g id="node10" class="node">
<title>39</title>
<ellipse fill="white" stroke="black" cx="261.71" cy="-126.16" rx="17.68" ry="17.68"/>
<text text-anchor="middle" x="261.71" y="-123.23" font-family="Times New Roman,serif" font-size="9.00">39</text>
</g>
<!-- right&#45;&gt;39 -->
<g id="edge1" class="edge">
<title>right&#45;&gt;39</title>
<path fill="none" stroke="green" stroke-width="0.13" d="M291.54,-179.41C287.24,-171.87 280.9,-160.76 275.17,-150.73"/>
<polygon fill="green" stroke="green" stroke-width="0.13" points="278.25,-149.07 270.25,-142.12 272.17,-152.54 278.25,-149.07"/>
</g>
<!-- 40 -->
<g id="node11" class="node">
<title>40</title>
<ellipse fill="white" stroke="black" cx="102.71" cy="-126.16" rx="17.68" ry="17.68"/>
<text text-anchor="middle" x="102.71" y="-123.23" font-family="Times New Roman,serif" font-size="9.00">40</text>
</g>
<!-- right&#45;&gt;40 -->
<g id="edge2" class="edge">
<title>right&#45;&gt;40</title>
<path fill="none" stroke="green" stroke-width="0.15" d="M280.1,-182.51C277.31,-181.57 274.44,-180.65 271.71,-179.83 208.9,-161.13 188.86,-169.87 128.71,-143.83 127.7,-143.4 126.69,-142.92 125.67,-142.42"/>
<polygon fill="green" stroke="green" stroke-width="0.15" points="127.44,-139.4 117.02,-137.49 123.98,-145.48 127.44,-139.4"/>
</g>
<!-- 41 -->
<g id="node12" class="node">
<title>41</title>
<ellipse fill="white" stroke="black" cx="155.71" cy="-126.16" rx="17.68" ry="17.68"/>
<text text-anchor="middle" x="155.71" y="-123.23" font-family="Times New Roman,serif" font-size="9.00">41</text>
</g>
<!-- right&#45;&gt;41 -->
<g id="edge3" class="edge">
<title>right&#45;&gt;41</title>
<path fill="none" stroke="green" stroke-width="0.51" d="M280.04,-182.46C252.69,-172.54 199.56,-152.91 181.71,-143.83 180.85,-143.4 179.99,-142.94 179.12,-142.47"/>
<polygon fill="green" stroke="green" stroke-width="0.51" points="181.03,-139.53 170.64,-137.43 177.45,-145.55 181.03,-139.53"/>
</g>
<!-- 42 -->
<g id="node13" class="node">
<title>42</title>
<ellipse fill="white" stroke="black" cx="208.71" cy="-126.16" rx="17.68" ry="17.68"/>
<text text-anchor="middle" x="208.71" y="-123.23" font-family="Times New Roman,serif" font-size="9.00">42</text>
</g>
<!-- right&#45;&gt;42 -->
<g id="edge4" class="edge">
<title>right&#45;&gt;42</title>
<path fill="none" stroke="white" stroke-width="0.15" d="M283.72,-179.41C269.88,-169.77 247.71,-154.32 231.05,-142.72"/>
<polygon fill="white" stroke="white" stroke-width="0.15" points="233.31,-140.03 223.1,-137.18 229.31,-145.77 233.31,-140.03"/>
</g>
<!-- right&#45;forward -->
<g id="node2" class="node">
<title>right&#45;forward</title>
<polygon fill="lightgray" stroke="black" points="76.71,-199.08 12.71,-199.08 12.71,-179.83 76.71,-179.83 76.71,-199.08"/>
<text text-anchor="middle" x="44.71" y="-186.53" font-family="Times New Roman,serif" font-size="9.00">right&#45;forward</text>
</g>
<!-- right&#45;forward&#45;&gt;39 -->
<g id="edge5" class="edge">
<title>right&#45;forward&#45;&gt;39</title>
<path fill="none" stroke="white" stroke-width="0.19" d="M76.88,-181.57C127.41,-170.65 221.16,-149.98 235.71,-143.83 236.72,-143.41 237.74,-142.94 238.75,-142.44"/>
<polygon fill="white" stroke="white" stroke-width="0.19" points="240.39,-145.54 247.37,-137.57 236.94,-139.45 240.39,-145.54"/>
</g>
<!-- right&#45;forward&#45;&gt;40 -->
<g id="edge6" class="edge">
<title>right&#45;forward&#45;&gt;40</title>
<path fill="none" stroke="green" stroke-width="0.19" d="M53.27,-179.41C61.28,-170.94 73.53,-158 83.83,-147.11"/>
<polygon fill="green" stroke="green" stroke-width="0.19" points="86.37,-149.52 90.7,-139.85 81.29,-144.71 86.37,-149.52"/>
</g>
<!-- right&#45;forward&#45;&gt;41 -->
<g id="edge7" class="edge">
<title>right&#45;forward&#45;&gt;41</title>
<path fill="none" stroke="white" stroke-width="0.53" d="M63.2,-179.34C80.59,-170.62 107.23,-156.91 129.71,-143.83 130.54,-143.35 131.38,-142.85 132.23,-142.34"/>
<polygon fill="white" stroke="white" stroke-width="0.53" points="133.94,-145.4 140.59,-137.15 130.25,-139.46 133.94,-145.4"/>
</g>
<!-- right&#45;forward&#45;&gt;42 -->
<g id="edge8" class="edge">
<title>right&#45;forward&#45;&gt;42</title>
<path fill="none" stroke="white" stroke-width="0.11" d="M77.12,-180.52C105.67,-172.94 147.99,-160.24 182.71,-143.83 183.83,-143.31 184.95,-142.74 186.08,-142.14"/>
<polygon fill="white" stroke="white" stroke-width="0.11" points="187.51,-145.36 194.37,-137.28 183.97,-139.32 187.51,-145.36"/>
</g>
<!-- forward -->
<g id="node3" class="node">
<title>forward</title>
<polygon fill="lightgray" stroke="black" points="138.96,-199.08 94.46,-199.08 94.46,-179.83 138.96,-179.83 138.96,-199.08"/>
<text text-anchor="middle" x="116.71" y="-186.53" font-family="Times New Roman,serif" font-size="9.00">forward</text>
</g>
<!-- forward&#45;&gt;39 -->
<g id="edge9" class="edge">
<title>forward&#45;&gt;39</title>
<path fill="none" stroke="white" stroke-width="0.48" d="M139.23,-181.59C163.62,-173.8 203.36,-160.05 235.71,-143.83 236.57,-143.4 237.44,-142.95 238.31,-142.48"/>
<polygon fill="white" stroke="white" stroke-width="0.48" points="240,-145.54 246.83,-137.44 236.44,-139.52 240,-145.54"/>
</g>
<!-- forward&#45;&gt;40 -->
<g id="edge10" class="edge">
<title>forward&#45;&gt;40</title>
<path fill="none" stroke="green" stroke-width="0.63" d="M114.64,-179.41C113.13,-172.78 110.99,-163.41 108.94,-154.43"/>
<polygon fill="green" stroke="green" stroke-width="0.63" points="112.38,-153.77 106.74,-144.81 105.55,-155.33 112.38,-153.77"/>
</g>
<!-- forward&#45;&gt;41 -->
<g id="edge11" class="edge">
<title>forward&#45;&gt;41</title>
<path fill="none" stroke="green" stroke-width="0.13" d="M122.46,-179.41C127.38,-171.69 134.67,-160.23 141.17,-150.01"/>
<polygon fill="green" stroke="green" stroke-width="0.13" points="144.08,-151.96 146.49,-141.64 138.17,-148.2 144.08,-151.96"/>
</g>
<!-- forward&#45;&gt;42 -->
<g id="edge12" class="edge">
<title>forward&#45;&gt;42</title>
<path fill="none" stroke="white" stroke-width="0.35" d="M130.28,-179.41C144.84,-169.71 168.21,-154.14 185.66,-142.51"/>
<polygon fill="white" stroke="white" stroke-width="0.35" points="187.34,-145.6 193.72,-137.14 183.46,-139.78 187.34,-145.6"/>
</g>
<!-- left&#45;forward -->
<g id="node4" class="node">
<title>left&#45;forward</title>
<polygon fill="lightgray" stroke="black" points="216.46,-199.08 156.96,-199.08 156.96,-179.83 216.46,-179.83 216.46,-199.08"/>
<text text-anchor="middle" x="186.71" y="-186.53" font-family="Times New Roman,serif" font-size="9.00">left&#45;forward</text>
</g>
<!-- left&#45;forward&#45;&gt;39 -->
<g id="edge13" class="edge">
<title>left&#45;forward&#45;&gt;39</title>
<path fill="none" stroke="white" stroke-width="0.51" d="M197.78,-179.41C208.91,-170.31 226.37,-156.04 240.24,-144.71"/>
<polygon fill="white" stroke="white" stroke-width="0.51" points="242.19,-147.63 247.72,-138.59 237.76,-142.21 242.19,-147.63"/>
</g>
<!-- left&#45;forward&#45;&gt;40 -->
<g id="edge14" class="edge">
<title>left&#45;forward&#45;&gt;40</title>
<path fill="none" stroke="green" stroke-width="0.6" d="M174.31,-179.41C161.5,-170.06 141.19,-155.24 125.47,-143.77"/>
<polygon fill="green" stroke="green" stroke-width="0.6" points="127.72,-141.07 117.58,-138.01 123.59,-146.73 127.72,-141.07"/>
</g>
<!-- left&#45;forward&#45;&gt;41 -->
<g id="edge15" class="edge">
<title>left&#45;forward&#45;&gt;41</title>
<path fill="none" stroke="green" stroke-width="0.26" d="M182.13,-179.41C178.41,-172.04 172.97,-161.28 167.99,-151.44"/>
<polygon fill="green" stroke="green" stroke-width="0.26" points="171.24,-150.11 163.6,-142.77 164.99,-153.27 171.24,-150.11"/>
</g>
<!-- left&#45;forward&#45;&gt;42 -->
<g id="edge16" class="edge">
<title>left&#45;forward&#45;&gt;42</title>
<path fill="none" stroke="green" stroke-width="0.22" d="M189.96,-179.41C192.51,-172.29 196.2,-162.01 199.63,-152.45"/>
<polygon fill="green" stroke="green" stroke-width="0.22" points="202.86,-153.81 202.95,-143.22 196.27,-151.45 202.86,-153.81"/>
</g>
<!-- left -->
<g id="node5" class="node">
<title>left</title>
<polygon fill="lightgray" stroke="black" points="262.71,-199.08 234.71,-199.08 234.71,-179.83 262.71,-179.83 262.71,-199.08"/>
<text text-anchor="middle" x="248.71" y="-186.53" font-family="Times New Roman,serif" font-size="9.00">left</text>
</g>
<!-- left&#45;&gt;39 -->
<g id="edge17" class="edge">
<title>left&#45;&gt;39</title>
<path fill="none" stroke="white" stroke-width="0.24" d="M250.63,-179.41C252.06,-172.64 254.11,-163 256.05,-153.84"/>
<polygon fill="white" stroke="white" stroke-width="0.24" points="259.44,-154.74 258.09,-144.24 252.59,-153.29 259.44,-154.74"/>
</g>
<!-- left&#45;&gt;40 -->
<g id="edge18" class="edge">
<title>left&#45;&gt;40</title>
<path fill="none" stroke="green" stroke-width="0.2" d="M234.6,-183.16C231.66,-182.06 228.59,-180.91 225.71,-179.83 182.62,-163.76 169.85,-164.37 128.71,-143.83 127.73,-143.34 126.73,-142.82 125.74,-142.28"/>
<polygon fill="green" stroke="green" stroke-width="0.2" points="127.61,-139.33 117.22,-137.23 124.04,-145.34 127.61,-139.33"/>
</g>
<!-- left&#45;&gt;41 -->
<g id="edge19" class="edge">
<title>left&#45;&gt;41</title>
<path fill="none" stroke="green" stroke-width="0.36" d="M234.99,-179.41C220.27,-169.71 196.65,-154.14 179.01,-142.51"/>
<polygon fill="green" stroke="green" stroke-width="0.36" points="181.14,-139.73 170.87,-137.15 177.29,-145.57 181.14,-139.73"/>
</g>
<!-- left&#45;&gt;42 -->
<g id="edge20" class="edge">
<title>left&#45;&gt;42</title>
<path fill="none" stroke="green" stroke-width="0.23" d="M242.81,-179.41C237.76,-171.69 230.29,-160.23 223.62,-150.01"/>
<polygon fill="green" stroke="green" stroke-width="0.23" points="226.64,-148.23 218.24,-141.77 220.78,-152.05 226.64,-148.23"/>
</g>
<!-- turn&#45;left -->
<g id="node6" class="node">
<title>turn&#45;left</title>
<ellipse fill="lightblue" stroke="black" cx="121.71" cy="-36.24" rx="32.53" ry="32.53"/>
<text text-anchor="middle" x="121.71" y="-33.31" font-family="Times New Roman,serif" font-size="9.00">turn&#45;left</text>
</g>
<!-- turn&#45;right -->
<g id="node7" class="node">
<title>turn&#45;right</title>
<ellipse fill="lightblue" stroke="black" cx="35.71" cy="-36.24" rx="35.71" ry="35.71"/>
<text text-anchor="middle" x="35.71" y="-33.31" font-family="Times New Roman,serif" font-size="9.00">turn&#45;right</text>
</g>
<!-- decelerate -->
<g id="node8" class="node">
<title>decelerate</title>
<ellipse fill="lightblue" stroke="black" cx="208.71" cy="-36.24" rx="36.24" ry="36.24"/>
<text text-anchor="middle" x="208.71" y="-33.31" font-family="Times New Roman,serif" font-size="9.00">decelerate</text>
</g>
<!-- accelerate -->
<g id="node9" class="node">
<title>accelerate</title>
<ellipse fill="lightblue" stroke="black" cx="298.71" cy="-36.24" rx="35.71" ry="35.71"/>
<text text-anchor="middle" x="298.71" y="-33.31" font-family="Times New Roman,serif" font-size="9.00">accelerate</text>
</g>
<!-- 39&#45;&gt;turn&#45;left -->
<g id="edge21" class="edge">
<title>39&#45;&gt;turn&#45;left</title>
<path fill="none" stroke="white" stroke-width="0.36" d="M247.3,-115.53C243.57,-113.14 239.53,-110.65 235.71,-108.48 204.61,-90.79 193.62,-92.11 163.71,-72.48 160.31,-70.25 156.89,-67.79 153.53,-65.23"/>
<polygon fill="white" stroke="white" stroke-width="0.36" points="155.82,-62.58 145.81,-59.09 151.46,-68.06 155.82,-62.58"/>
</g>
<!-- 39&#45;&gt;decelerate -->
<g id="edge22" class="edge">
<title>39&#45;&gt;decelerate</title>
<path fill="none" stroke="white" stroke-width="0.31" d="M252.96,-110.64C247.33,-101.3 239.72,-88.68 232.4,-76.53"/>
<polygon fill="white" stroke="white" stroke-width="0.31" points="235.55,-74.99 227.39,-68.23 229.56,-78.6 235.55,-74.99"/>
</g>
<!-- 39&#45;&gt;accelerate -->
<g id="edge23" class="edge">
<title>39&#45;&gt;accelerate</title>
<path fill="none" stroke="white" stroke-width="0.28" d="M268.32,-109.44C271.92,-100.88 276.57,-89.85 281.14,-79"/>
<polygon fill="white" stroke="white" stroke-width="0.28" points="284.29,-80.54 284.94,-69.96 277.83,-77.82 284.29,-80.54"/>
</g>
<!-- 40&#45;&gt;turn&#45;left -->
<g id="edge24" class="edge">
<title>40&#45;&gt;turn&#45;left</title>
<path fill="none" stroke="green" stroke-width="0.45" d="M106.28,-108.62C108.14,-100.03 110.5,-89.1 112.81,-78.4"/>
<polygon fill="green" stroke="green" stroke-width="0.45" points="116.16,-79.47 114.86,-68.95 109.32,-77.99 116.16,-79.47"/>
</g>
<!-- 40&#45;&gt;turn&#45;right -->
<g id="edge25" class="edge">
<title>40&#45;&gt;turn&#45;right</title>
<path fill="none" stroke="green" stroke-width="0.15" d="M92.24,-111.42C84.36,-101.08 73.2,-86.43 62.86,-72.87"/>
<polygon fill="green" stroke="green" stroke-width="0.15" points="65.89,-71.07 57.05,-65.24 60.32,-75.31 65.89,-71.07"/>
</g>
<!-- 40&#45;&gt;decelerate -->
<g id="edge26" class="edge">
<title>40&#45;&gt;decelerate</title>
<path fill="none" stroke="green" stroke-width="0.28" d="M116.13,-114.02C130.43,-102.16 153.66,-82.9 173.26,-66.64"/>
<polygon fill="green" stroke="green" stroke-width="0.28" points="175.34,-69.46 180.8,-60.39 170.87,-64.08 175.34,-69.46"/>
</g>
<!-- 40&#45;&gt;accelerate -->
<g id="edge27" class="edge">
<title>40&#45;&gt;accelerate</title>
<path fill="none" stroke="green" stroke-width="0.2" d="M116.86,-115.03C120.6,-112.66 124.7,-110.29 128.71,-108.48 181.37,-84.62 202.23,-98.78 253.71,-72.48 257.19,-70.7 260.66,-68.64 264.05,-66.42"/>
<polygon fill="green" stroke="green" stroke-width="0.2" points="265.84,-69.43 272,-60.82 261.81,-63.71 265.84,-69.43"/>
</g>
<!-- 41&#45;&gt;turn&#45;left -->
<g id="edge28" class="edge">
<title>41&#45;&gt;turn&#45;left</title>
<path fill="none" stroke="green" stroke-width="0.41" d="M149.63,-109.44C146.08,-100.25 141.42,-88.22 136.94,-76.61"/>
<polygon fill="green" stroke="green" stroke-width="0.41" points="140.33,-75.68 133.46,-67.61 133.8,-78.2 140.33,-75.68"/>
</g>
<!-- 41&#45;&gt;turn&#45;right -->
<g id="edge29" class="edge">
<title>41&#45;&gt;turn&#45;right</title>
<path fill="none" stroke="white" stroke-width="0.22" d="M141.21,-115.54C125.76,-105.2 100.69,-88.12 79.71,-72.48 76.88,-70.37 73.97,-68.15 71.06,-65.9"/>
<polygon fill="white" stroke="white" stroke-width="0.22" points="73.23,-63.15 63.2,-59.73 68.91,-68.66 73.23,-63.15"/>
</g>
<!-- 41&#45;&gt;decelerate -->
<g id="edge30" class="edge">
<title>41&#45;&gt;decelerate</title>
<path fill="none" stroke="green" stroke-width="0.44" d="M164.46,-110.64C170.04,-101.39 177.55,-88.92 184.81,-76.89"/>
<polygon fill="green" stroke="green" stroke-width="0.44" points="187.75,-78.78 189.92,-68.41 181.76,-75.16 187.75,-78.78"/>
</g>
<!-- 41&#45;&gt;accelerate -->
<g id="edge31" class="edge">
<title>41&#45;&gt;accelerate</title>
<path fill="none" stroke="green" stroke-width="0.38" d="M170.12,-115.53C173.84,-113.14 177.89,-110.65 181.71,-108.48 212.81,-90.79 223.47,-91.6 253.71,-72.48 256.92,-70.45 260.17,-68.24 263.38,-65.95"/>
<polygon fill="green" stroke="green" stroke-width="0.38" points="265.32,-68.87 271.28,-60.11 261.16,-63.24 265.32,-68.87"/>
</g>
<!-- 42&#45;&gt;turn&#45;left -->
<g id="edge32" class="edge">
<title>42&#45;&gt;turn&#45;left</title>
<path fill="none" stroke="white" stroke-width="0.13" d="M196.61,-112.93C184.87,-101.07 166.59,-82.6 151.03,-66.87"/>
<polygon fill="white" stroke="white" stroke-width="0.13" points="153.76,-64.65 144.24,-60.01 148.79,-69.58 153.76,-64.65"/>
</g>
<!-- 42&#45;&gt;turn&#45;right -->
<g id="edge33" class="edge">
<title>42&#45;&gt;turn&#45;right</title>
<path fill="none" stroke="green" stroke-width="0.24" d="M194.48,-115.18C190.75,-112.81 186.66,-110.4 182.71,-108.48 139.11,-87.24 122.13,-95.97 79.71,-72.48 76.62,-70.77 73.53,-68.84 70.49,-66.79"/>
<polygon fill="green" stroke="green" stroke-width="0.24" points="72.6,-63.99 62.45,-60.97 68.5,-69.67 72.6,-63.99"/>
</g>
<!-- 42&#45;&gt;decelerate -->
<g id="edge34" class="edge">
<title>42&#45;&gt;decelerate</title>
<path fill="none" stroke="white" stroke-width="0.12" d="M208.71,-108.2C208.71,-100.8 208.71,-91.73 208.71,-82.58"/>
<polygon fill="white" stroke="white" stroke-width="0.12" points="212.21,-82.87 208.71,-72.87 205.21,-82.87 212.21,-82.87"/>
</g>
<!-- 42&#45;&gt;accelerate -->
<g id="edge35" class="edge">
<title>42&#45;&gt;accelerate</title>
<path fill="none" stroke="green" stroke-width="0.47" d="M220.85,-113.3C232.39,-102.02 250.28,-84.54 266.01,-69.19"/>
<polygon fill="green" stroke="green" stroke-width="0.47" points="268.3,-71.84 273.01,-62.35 263.41,-66.83 268.3,-71.84"/>
</g>
</g>
</svg>
